Coordinates
version=1
nRows=10
nColumns=22
inDegrees=yes

Units are S.I. units (second, meters, Newtons, ...)
If the header above contains a line with 'inDegrees', this indicates whether rotational values are in degrees (yes) or radians (no).

endheader
time	pelvis_tilt	pelvis_list	pelvis_rotation	pelvis_tx	pelvis_ty	pelvis_tz	hip_flexion_r	hip_adduction_r	hip_rotation_r	knee_angle_r	ankle_angle_r	subtalar_angle_r	hip_flexion_l	hip_adduction_l	hip_rotation_l	knee_angle_l	ankle_angle_l	subtalar_angle_l	lumbar_extension	lumbar_bending	lumbar_rotation
      5.47000000	     -2.23751095	     -2.31030469	   -117.84436904	      0.62322310	      0.90855538	      0.50306920	     12.22965799	      9.93772293	    -14.54337608	    -20.93044933	      4.42632937	    -14.10023555	      4.13654786	     -9.78826415	     -6.63445396	    -64.93729150	    -11.74623152	     10.37058626	     -8.61960685	     -1.73682354	     -6.66910870
      5.48000000	     -2.45920322	     -2.44472594	   -118.97508544	      0.61774847	      0.90990409	      0.50899513	     11.20314315	     10.36036690	    -13.35513980	    -20.64502442	      4.51772068	    -13.72814884	      5.09589209	    -10.18337690	     -6.59432302	    -65.50711608	    -10.69230236	     10.38982030	     -8.79760829	     -1.77580196	     -6.15828943
      5.49000000	     -2.54944136	     -2.50403340	   -120.19280301	      0.61249836	      0.91096882	      0.51450633	     10.38893106	     10.64518913	    -12.23158381	    -20.48624875	      4.71419909	    -13.48018538	      6.15906481	    -10.46046866	     -6.59401212	    -65.86987712	     -9.41155933	     10.43536735	     -8.87332061	     -1.89342904	     -5.60349353
      5.50000000	     -2.49526681	     -2.45863915	   -121.56404731	      0.60734159	      0.91174654	      0.51953802	      9.73772926	     10.84970694	    -11.01111698	    -20.27626675	      4.83497402	    -13.20510143	      7.34955012	    -10.66540808	     -6.72631919	    -66.01749905	     -8.16664524	     10.41874174	     -8.79203424	     -2.09386528	     -4.92042593
      5.51000000	     -2.31507977	     -2.33689244	   -123.02337190	      0.60242412	      0.91219744	      0.52410957	      9.28240271	     10.95204153	     -9.84438243	    -20.13104082	      4.99034958	    -13.02023422	      8.65997326	    -10.79636828	     -6.90167961	    -65.98249619	     -6.81152766	     10.33890222	     -8.60760769	     -2.35186769	     -4.19504164
      5.52000000	     -2.07150233	     -2.17196627	   -124.53251119	      0.59764557	      0.91243077	      0.52835563	      8.92688621	     11.01144043	     -8.69268682	    -19.99428482	      5.15186144	    -12.91482148	     10.01448187	    -10.91686133	     -7.09982824	    -65.74696211	     -5.40821124	     10.16247435	     -8.36604751	     -2.62642692	     -3.45425980
      5.53000000	     -1.84554923	     -2.01645462	   -126.04518360	      0.59287439	      0.91260157	      0.53249066	      8.54338131	     11.07551677	     -7.55085024	    -19.82644196	      5.31825976	    -12.86799103	     11.29351541	    -11.08383776	     -7.30037178	    -65.28804923	     -3.99833718	      9.89744521	     -8.13508354	     -2.87715913	     -2.73968682
      5.54000000	     -1.68667466	     -1.89802865	   -127.51699690	      0.58811344	      0.91279492	      0.53660191	      8.08150393	     11.16608806	     -6.39253598	    -19.64231369	      5.48126011	    -12.85665018	     12.44613047	    -11.30865912	     -7.45734799	    -64.61255919	     -2.61594764	      9.50506155	     -7.97494511	     -3.07503115	     -2.08670756
      5.55000000	     -1.61578144	     -1.82701548	   -128.92835947	      0.58332435	      0.91305841	      0.54077517	      7.50769061	     11.28872587	     -5.21111551	    -19.43684610	      5.64097573	    -12.87212313	     13.43995472	    -11.59100621	     -7.56642538	    -63.72114613	     -1.28802698	      8.96278599	     -7.90268031	     -3.21416770	     -1.52176601
      5.56000000	     -1.64079689	     -1.81269487	   -130.25876892	      0.57855047	      0.91341621	      0.54505463	      6.81975734	     11.42714278	     -4.05967147	    -19.23309201	      5.80699839	    -12.91208387	     14.26166337	    -11.90732705	     -7.61533815	    -62.62097478	     -0.00733652	      8.19949086	     -7.93969371	     -3.29818646	     -1.04767925
